<svg width="187" height="55" viewBox="0 0 187 55" fill="none" xmlns="http://www.w3.org/2000/svg">
<g clip-path="url(#clip0_6729_20)">
<path d="M55.3473 12.2252C55.7958 12.2252 56.1273 12.5567 56.1273 13.0051V15.2277C56.1273 15.6761 55.7958 16.0076 55.3473 16.0076H36.4909C36.0424 16.0076 35.7109 15.6761 35.7109 15.2277V13.0051C35.7109 12.5567 36.0424 12.2252 36.4909 12.2252H37.7194L39.1624 6.23976C40.0204 2.69137 42.2629 0.46875 46.7089 0.46875H53.1438C53.5923 0.46875 53.9238 0.800196 53.9238 1.24862V12.2252H55.3473ZM49.0293 4.2316H46.7089C45.2659 4.2316 44.4469 5.01147 44.1544 6.22026L42.7114 12.2057H49.0293V4.2316Z" fill="#919677"/>
<path d="M69.4271 7.11707L63.8891 15.2082C63.6746 15.5396 63.2261 15.988 62.6607 15.988H58.8972C58.4487 15.988 58.1172 15.6566 58.1172 15.2082V1.22908C58.1172 0.780657 58.4487 0.449219 58.8972 0.449219H62.2317C62.6802 0.449219 63.0117 0.780657 63.0117 1.22908V9.32019H63.2261L68.7641 1.22908C68.9786 0.897637 69.4271 0.449219 69.9926 0.449219H73.7561C74.2046 0.449219 74.5361 0.780657 74.5361 1.22908V15.2082C74.5361 15.6566 74.2046 15.988 73.7561 15.988H70.4216C69.9731 15.988 69.6416 15.6566 69.6416 15.2082V7.11707H69.4271Z" fill="#919677"/>
<path d="M94.052 15.2082C94.052 15.6566 93.7205 15.988 93.272 15.988H89.9375C89.489 15.988 89.1575 15.6566 89.1575 15.2082V10.217H82.7226V15.2082C82.7226 15.6566 82.3911 15.988 81.9426 15.988H78.6081C78.1596 15.988 77.8281 15.6566 77.8281 15.2082V1.22908C77.8281 0.780657 78.1596 0.449219 78.6081 0.449219H81.9426C82.3911 0.449219 82.7226 0.780657 82.7226 1.22908V6.43469H89.1575V1.22908C89.1575 0.780657 89.489 0.449219 89.9375 0.449219H93.272C93.7205 0.449219 94.052 0.780657 94.052 1.22908V15.2082Z" fill="#919677"/>
<path d="M108.658 13.2195H101.677L100.897 15.2082C100.721 15.6566 100.351 15.988 99.9025 15.988H96.334C95.8855 15.988 95.5735 15.6566 95.788 15.2082L101.989 1.22908C102.184 0.780657 102.535 0.449219 102.983 0.449219H107.527C107.975 0.449219 108.326 0.761164 108.521 1.20959L114.722 15.2082C114.917 15.6566 114.605 15.988 114.176 15.988H110.413C109.964 15.988 109.594 15.6566 109.418 15.2082L108.658 13.2195ZM103.217 9.55415H107.098L105.323 5.12841H105.109L103.217 9.55415Z" fill="#919677"/>
<path d="M132.457 5.34208C132.457 5.88798 132.125 6.21943 131.579 6.21943H128.81C128.147 6.21943 127.816 5.88798 127.484 5.34208C126.938 4.44523 126.158 3.68487 124.481 3.68487C122.044 3.68487 120.484 5.24459 120.484 8.22758C120.484 11.2106 122.044 12.7703 124.481 12.7703C126.256 12.7703 127.133 11.893 127.699 10.8791C128.011 10.3332 128.362 10.0018 129.025 10.0018H131.794C132.34 10.0018 132.671 10.3332 132.671 10.8791C132.671 13.5307 129.785 16.4162 124.462 16.4162C118.592 16.4162 115.375 13.1992 115.375 8.20809C115.375 3.21695 118.592 0 124.462 0C129.688 0.0194966 132.457 2.78802 132.457 5.34208Z" fill="#919677"/>
<path d="M149.314 3.4517C149.314 3.90012 148.983 4.23157 148.534 4.23157H143.874V15.2082C143.874 15.6566 143.542 15.988 143.094 15.988H139.76C139.311 15.988 138.98 15.6566 138.98 15.2082V4.23157H134.319C133.871 4.23157 133.539 3.90012 133.539 3.4517V1.22908C133.539 0.780657 133.871 0.449219 134.319 0.449219H148.515C148.963 0.449219 149.295 0.780657 149.295 1.22908V3.4517H149.314Z" fill="#919677"/>
<path d="M162.615 7.11707L157.077 15.2082C156.862 15.5396 156.414 15.988 155.848 15.988H152.085C151.636 15.988 151.305 15.6566 151.305 15.2082V1.22908C151.305 0.780657 151.636 0.449219 152.085 0.449219H155.419C155.868 0.449219 156.199 0.780657 156.199 1.22908V9.32019H156.414L161.952 1.22908C162.166 0.897637 162.615 0.449219 163.18 0.449219H166.944C167.392 0.449219 167.724 0.780657 167.724 1.22908V15.2082C167.724 15.6566 167.392 15.988 166.944 15.988H163.609C163.161 15.988 162.829 15.6566 162.829 15.2082V7.11707H162.615Z" fill="#919677"/>
<path d="M170.734 5.79133C170.734 2.78885 173.055 0.46875 178.047 0.46875H185.925C186.373 0.46875 186.705 0.800196 186.705 1.24862V15.2277C186.705 15.6761 186.373 16.0076 185.925 16.0076H182.59C182.142 16.0076 181.81 15.6761 181.81 15.2277V11.1334H178.827L175.726 15.2277C175.473 15.5592 175.063 16.0076 174.283 16.0076H170.52C169.974 16.0076 169.72 15.5592 169.974 15.2277L173.971 10.0221V9.80765C173.952 9.78815 170.734 9.10576 170.734 5.79133ZM181.81 7.56553V4.01714H178.047C176.604 4.01714 175.824 4.79701 175.824 5.79133C175.824 6.78566 176.604 7.56553 178.047 7.56553H181.81Z" fill="#919677"/>
<path d="M40.0005 24.5267H39.0645C38.811 24.0783 38.4015 23.8638 37.8555 23.8638C37.407 23.8638 37.056 24.0198 36.7636 24.3318C36.4711 24.6437 36.3346 25.0142 36.3346 25.4821C36.3346 25.95 36.4711 26.3204 36.7636 26.6324C37.056 26.9443 37.407 27.1003 37.8555 27.1003C38.4015 27.1003 38.811 26.8858 39.0645 26.4374H40.0005C39.8445 26.8858 39.5715 27.2368 39.1815 27.4902C38.7915 27.7437 38.3625 27.8802 37.8555 27.8802C37.1925 27.8802 36.6271 27.6462 36.1591 27.1978C35.7106 26.7493 35.4766 26.1645 35.4766 25.4821C35.4766 24.7997 35.7106 24.2343 36.1591 23.7664C36.6076 23.3179 37.173 23.084 37.8555 23.084C38.3625 23.084 38.7915 23.2205 39.1815 23.4739C39.5715 23.7274 39.8445 24.0978 40.0005 24.5267Z" fill="#919677"/>
<path d="M44.3087 27.1003C44.8742 27.1003 45.2837 26.9053 45.5177 26.4959H46.4342C46.2782 26.9248 46.0052 27.2758 45.6347 27.5292C45.2642 27.7827 44.8157 27.8997 44.3087 27.8997C43.6262 27.8997 43.0607 27.6657 42.6122 27.2173C42.1637 26.7688 41.9297 26.184 41.9297 25.4821C41.9297 24.7997 42.1442 24.2343 42.5927 23.7664C43.0217 23.3179 43.5872 23.084 44.2697 23.084C44.9132 23.084 45.4397 23.3179 45.8687 23.7664C46.2977 24.2148 46.5122 24.7802 46.5122 25.4236C46.5122 25.6185 46.5122 25.7355 46.4927 25.794H42.8267C42.8852 26.1645 43.0412 26.4764 43.3337 26.7299C43.5872 26.9638 43.9187 27.1003 44.3087 27.1003ZM44.2697 23.8638C43.8797 23.8638 43.5482 23.9808 43.2947 24.1758C43.0412 24.3903 42.8852 24.6827 42.8267 25.0336H45.6152C45.5567 24.6632 45.4202 24.3903 45.1862 24.1758C44.9327 23.9808 44.6402 23.8638 44.2697 23.8638Z" fill="#919677"/>
<path d="M48.0781 23.9616V23.2207H52.4461V23.9616H50.6911V27.7439H49.8331V23.9616H48.0781Z" fill="#919677"/>
<path d="M55.2642 24.7024H56.8437C57.4092 24.7024 57.8187 24.8389 58.1112 25.1313C58.4037 25.4238 58.5402 25.7747 58.5402 26.2232C58.5402 26.6716 58.4037 27.0225 58.1112 27.315C57.8187 27.6074 57.3897 27.7439 56.8437 27.7439H54.4062V23.2012H55.2642V24.7024ZM55.2642 27.003H56.8242C57.1167 27.003 57.3312 26.9445 57.4872 26.8081C57.6432 26.6716 57.7212 26.4766 57.7212 26.2427C57.7212 25.9892 57.6432 25.7942 57.4872 25.6772C57.3312 25.5408 57.1167 25.4823 56.8242 25.4823H55.2642V27.003Z" fill="#919677"/>
<path d="M68.5276 24.7414L67.0652 27.7439H66.2072L64.7252 24.7414V27.7439H63.8672V23.2012H64.8422L66.6362 26.847L68.4302 23.2012H69.3856V27.7439H68.5276V24.7414Z" fill="#919677"/>
<path d="M74.0509 27.0808C74.6164 27.0808 75.0258 26.8858 75.2598 26.4764H76.1763C76.0203 26.9053 75.7473 27.2562 75.3768 27.5097C75.0064 27.7631 74.5579 27.8801 74.0509 27.8801C73.3684 27.8801 72.8029 27.6462 72.3544 27.1977C71.9059 26.7493 71.6719 26.1644 71.6719 25.4625C71.6719 24.7802 71.8864 24.2148 72.3349 23.7468C72.7639 23.2984 73.3294 23.0645 74.0119 23.0645C74.6554 23.0645 75.1818 23.2984 75.6108 23.7468C76.0398 24.1953 76.2543 24.7607 76.2543 25.4041C76.2543 25.599 76.2543 25.716 76.2348 25.7745H72.5689C72.6274 26.1449 72.7834 26.4569 73.0759 26.7103C73.3099 26.9443 73.6609 27.0808 74.0509 27.0808ZM73.9924 23.8638C73.6024 23.8638 73.2709 23.9808 73.0174 24.1758C72.7639 24.3902 72.6079 24.6827 72.5494 25.0336H75.3378C75.2793 24.6632 75.1428 24.3902 74.9088 24.1758C74.6554 23.9613 74.3629 23.8638 73.9924 23.8638Z" fill="#919677"/>
<path d="M83.4013 28.9721H82.5433V27.7244H78.7408V28.9721H77.8828V26.9835H78.4093C78.7798 26.6325 78.9748 26.0087 78.9748 25.0728V23.1816H82.6408V26.964H83.3818L83.4013 28.9721ZM79.8328 23.942V25.0728C79.8328 25.9307 79.6963 26.5546 79.4428 26.9835H81.8218V23.942H79.8328Z" fill="#919677"/>
<path d="M86.4283 27.7244H85.5703V23.1816H86.4283V26.4961L89.0803 23.1816H89.9383V27.7244H89.0803V24.4099L86.4283 27.7244Z" fill="#919677"/>
<path d="M97.5231 28.9721H96.6652V27.7244H92.4922V23.1816H93.3502V26.964H95.9242V23.1816H96.7822V26.964H97.5231V28.9721Z" fill="#919677"/>
<path d="M100.545 27.7244H99.6875V23.1816H100.545V26.4961L103.197 23.1816H104.055V27.7244H103.197V24.4099L100.545 27.7244Z" fill="#919677"/>
<path d="M110.119 23.1816H110.977V27.7244H110.119V25.8137H107.467V27.7244H106.609V23.1816H107.467V25.0533H110.119V23.1816Z" fill="#919677"/>
<path d="M117.751 24.4877H116.815C116.561 24.0392 116.152 23.8248 115.606 23.8248C115.157 23.8248 114.806 23.9808 114.514 24.2927C114.221 24.6047 114.085 24.9751 114.085 25.443C114.085 25.9109 114.221 26.2814 114.514 26.5933C114.806 26.9053 115.157 27.0612 115.606 27.0612C116.152 27.0612 116.561 26.8468 116.815 26.3983H117.751C117.595 26.8468 117.322 27.1977 116.932 27.4512C116.542 27.7046 116.113 27.8411 115.606 27.8411C114.943 27.8411 114.377 27.6071 113.909 27.1587C113.461 26.7103 113.227 26.1254 113.227 25.443C113.227 24.7606 113.461 24.1952 113.909 23.7273C114.358 23.2789 114.923 23.0449 115.606 23.0449C116.113 23.0449 116.542 23.1814 116.932 23.4348C117.322 23.6883 117.595 24.0392 117.751 24.4877Z" fill="#919677"/>
<path d="M119.969 23.1621H120.827V25.1508L123.011 23.1621H124.142L121.626 25.4432L124.142 27.7048H123.011L120.827 25.8332V27.7048H119.969V23.1621Z" fill="#919677"/>
<path d="M126.881 27.7048H126.023V23.1621H126.881V26.4765L129.533 23.1621H130.391V27.7048H129.533V24.3904L126.881 27.7048Z" fill="#919677"/>
<path d="M137.063 23.1621L135.21 25.4042L137.082 27.7048H136.049L134.684 26.0281L133.319 27.7048H132.344L134.196 25.4237L132.363 23.1621H133.416L134.723 24.7998L136.049 23.1621H137.063Z" fill="#919677"/>
<path d="M147.351 28.9331H146.493V27.6853H142.32V23.1426H143.178V26.9249H145.752V23.1426H146.61V26.9249H147.351V28.9331Z" fill="#919677"/>
<path d="M151.606 27.0417C152.171 27.0417 152.581 26.8467 152.815 26.4373H153.731C153.575 26.8662 153.302 27.2172 152.932 27.4706C152.561 27.7241 152.113 27.8411 151.606 27.8411C150.923 27.8411 150.358 27.6071 149.909 27.1587C149.461 26.7103 149.227 26.1254 149.227 25.4235C149.227 24.7411 149.441 24.1757 149.89 23.7078C150.319 23.2594 150.884 23.0254 151.567 23.0254C152.21 23.0254 152.737 23.2594 153.166 23.7078C153.595 24.1562 153.809 24.7216 153.809 25.365C153.809 25.56 153.809 25.6769 153.79 25.7354H150.124C150.182 26.1059 150.338 26.4178 150.631 26.6713C150.884 26.9052 151.216 27.0417 151.606 27.0417ZM151.567 23.8053C151.177 23.8053 150.845 23.9222 150.592 24.1172C150.338 24.3317 150.182 24.6241 150.124 24.9751H152.912C152.854 24.6046 152.717 24.3317 152.483 24.1172C152.23 23.9222 151.937 23.8053 151.567 23.8053Z" fill="#919677"/>
<path d="M159.557 23.1426H160.415V27.6853H159.557V25.7746H156.905V27.6853H156.047V23.1426H156.905V25.0143H159.557V23.1426Z" fill="#919677"/>
<path d="M162.383 23.903V23.1621H166.751V23.903H164.996V27.6853H164.138V23.903H162.383Z" fill="#919677"/>
<path d="M169.577 29.6932H168.719V23.1423H169.577V23.6298C169.947 23.2203 170.454 23.0059 171.098 23.0059C171.819 23.0059 172.385 23.2398 172.794 23.7077C173.204 24.1757 173.399 24.7411 173.399 25.4039C173.399 26.0668 173.204 26.6322 172.794 27.1002C172.385 27.5681 171.819 27.802 171.098 27.802C170.454 27.802 169.947 27.5876 169.557 27.1781L169.577 29.6932ZM169.986 24.2146C169.694 24.4876 169.538 24.897 169.538 25.4039C169.538 25.9109 169.694 26.3203 169.986 26.5932C170.279 26.8662 170.649 27.0027 171.059 27.0027C171.488 27.0027 171.839 26.8467 172.112 26.5347C172.385 26.2228 172.521 25.8329 172.521 25.3844C172.521 24.936 172.385 24.5656 172.092 24.2536C171.819 23.9417 171.468 23.7857 171.039 23.7857C170.649 23.8052 170.298 23.9417 169.986 24.2146Z" fill="#919677"/>
<path d="M177.762 23.0059C178.444 23.0059 179.01 23.2398 179.458 23.6882C179.907 24.1367 180.141 24.7216 180.141 25.4039C180.141 26.0863 179.907 26.6517 179.458 27.1197C179.01 27.5681 178.444 27.802 177.762 27.802C177.079 27.802 176.514 27.5681 176.065 27.1197C175.617 26.6712 175.383 26.0863 175.383 25.4039C175.383 24.7216 175.617 24.1562 176.065 23.6882C176.494 23.2398 177.079 23.0059 177.762 23.0059ZM176.67 26.5542C176.962 26.8662 177.333 27.0222 177.762 27.0222C178.21 27.0222 178.561 26.8662 178.854 26.5542C179.146 26.2423 179.283 25.8719 179.283 25.4039C179.283 24.936 179.146 24.5656 178.854 24.2536C178.561 23.9417 178.191 23.7857 177.762 23.7857C177.313 23.7857 176.943 23.9417 176.67 24.2536C176.377 24.5656 176.241 24.936 176.241 25.4039C176.221 25.8719 176.377 26.2423 176.67 26.5542Z" fill="#919677"/>
<path d="M185.998 25.4042C186.427 25.6187 186.622 25.9696 186.622 26.457C186.622 26.8079 186.505 27.1004 186.252 27.3344C185.998 27.5683 185.647 27.6853 185.179 27.6853H182.43V23.1426H185.14C185.608 23.1426 185.979 23.2596 186.213 23.474C186.466 23.708 186.583 24.0004 186.583 24.3514C186.583 24.8388 186.388 25.1897 185.998 25.4042ZM183.268 25.0338H185.043C185.511 25.0338 185.725 24.8388 185.725 24.4684C185.725 24.0784 185.491 23.9029 185.043 23.9029H183.268V25.0338ZM183.268 26.9249H185.082C185.55 26.9249 185.764 26.73 185.764 26.3595C185.764 25.9696 185.53 25.7941 185.082 25.7941H183.268V26.9249Z" fill="#919677"/>
<path d="M31.5118 3.93929H23.4583V3.95879C23.0683 3.95879 22.9903 3.86131 22.9513 3.9003C22.9318 3.9198 22.9903 4.07577 22.9708 4.38772C22.9318 5.6745 22.9513 10.4122 22.9513 14.565V17.4505C22.9513 20.8039 23.4193 22.9485 21.2158 23.241V23.2215L4.66046 23.202V23.2215H4.64096V23.202C4.21197 23.202 3.88047 23.2995 3.66597 23.4944C3.54897 23.5919 3.45147 23.7674 3.45147 23.9623H3.47097V23.9819H3.45147L3.49047 31.9365C3.49047 32.0535 3.56847 32.1704 3.66597 32.3069L3.99747 32.6579C6.61045 32.6579 21.0208 32.6579 21.1183 32.6579L22.8538 32.6384V34.3541C22.8538 34.3931 22.8538 49.5809 22.8733 50.5558C22.8733 50.6728 23.0878 50.9847 23.3803 51.3162C23.4973 51.4526 23.4583 51.5696 23.5168 51.5696L31.7067 51.6086C31.9017 51.6086 32.0967 51.5111 32.2527 51.3356C32.4477 51.1017 32.5842 50.7897 32.5842 50.4193C32.5842 46.0716 32.4867 34.4905 32.4867 34.471L32.4672 32.7943L34.1637 32.7553L100.132 33.5352L35.9382 36.1283C35.9772 39.5012 36.0162 47.0659 36.0162 50.4193C35.9967 51.6866 35.5287 52.7979 34.7682 53.6168C33.9687 54.4746 32.8767 55.001 31.6872 54.9815L23.4973 54.962C22.4248 54.9425 21.4693 54.3381 20.7673 53.5388C19.9873 52.6419 19.4218 51.3941 19.4023 50.6143C19.3633 49.5225 19.3633 39.9886 19.3633 36.0308L3.97797 36.0503C3.39297 36.0503 1.98898 35.5434 1.09199 34.549C0.487496 33.8861 0.0194998 32.9893 0.0194998 31.8975L0 23.9429L0 23.9234H0.0194998C0.0194998 22.6561 0.545996 21.6033 1.44299 20.8429C2.26198 20.1605 3.37347 19.7511 4.64096 19.7511H4.66046L19.4998 19.8291C19.4998 19.8291 19.4998 15.4423 19.4998 14.565C19.4998 10.3732 19.4998 5.616 19.5193 4.32922C19.5583 3.2764 19.6948 2.41855 20.3383 1.69718C20.9818 0.936808 21.9178 0.546875 23.4388 0.546875H31.4922V3.93929H31.5118Z" fill="#919677"/>
</g>
<defs>
<clipPath id="clip0_6729_20">
<rect width="187" height="55" fill="white"/>
</clipPath>
</defs>
</svg>
